<svg width="522" height="284" viewBox="0 0 522 284" fill="none" xmlns="http://www.w3.org/2000/svg">
<rect width="521.17" height="284" rx="8" fill="white"/>
<g opacity="0.5">
<path opacity="0.1" d="M217.674 253.185C233.871 253.185 247.001 251.081 247.001 248.484C247.001 245.887 233.871 243.782 217.674 243.782C201.477 243.782 188.346 245.887 188.346 248.484C188.346 251.081 201.477 253.185 217.674 253.185Z" fill="#587EEC"/>
<path opacity="0.1" d="M377.093 253.317C397.304 253.317 413.689 251.213 413.689 248.616C413.689 246.019 397.304 243.915 377.093 243.915C356.881 243.915 340.497 246.019 340.497 248.616C340.497 251.213 356.881 253.317 377.093 253.317Z" fill="#587EEC"/>
<path opacity="0.1" d="M111.266 119.772H141.812V161.328H113.502C113.427 161.755 113.354 162.184 113.276 162.614H141.812V196.128C141.761 196.113 141.716 196.095 141.668 196.077C140.861 195.758 140.06 195.422 139.26 195.061L138.748 194.83C137.945 194.452 137.143 194.051 136.34 193.628C136.06 193.481 135.78 193.328 135.503 193.172C131.048 190.681 127 187.524 123.5 183.811C123.398 183.712 123.302 183.607 123.199 183.511C122.712 182.982 122.233 182.447 121.77 181.9L121.258 181.3C120.71 180.63 120.181 179.942 119.666 179.245C119.591 179.143 119.519 179.04 119.44 178.944C117.347 176.047 115.609 172.911 114.263 169.601C114.221 169.502 114.185 169.394 114.146 169.301C113.733 168.24 113.367 167.168 113.047 166.087C112.909 165.633 112.777 165.185 112.662 164.714C112.62 164.575 112.584 164.44 112.551 164.305C110.841 157.645 110.64 150.726 110.64 143.856C110.64 143.054 110.64 142.249 110.64 141.453C110.64 138.674 110.673 135.877 110.721 133.083C110.721 132.359 110.751 131.638 110.766 130.911C110.808 129.067 110.868 127.222 110.947 125.378C110.965 124.864 110.989 124.353 111.016 123.842C111.016 123.548 111.031 123.254 111.061 122.959C111.133 121.89 111.193 120.829 111.266 119.772Z" fill="#587EEC"/>
<path opacity="0.1" d="M141.812 73.5022H125.057C127.78 69.2471 130.756 65.1582 133.968 61.2573C136.458 58.2051 139.085 55.2311 141.812 52.3651V73.5022Z" fill="#587EEC"/>
<path opacity="0.1" d="M141.812 74.788V118.486H111.362C111.362 118.36 111.383 118.231 111.392 118.105C111.419 117.759 111.446 117.414 111.476 117.071C111.509 116.669 111.546 116.263 111.585 115.869C111.624 115.476 111.666 114.995 111.711 114.56C111.756 114.124 111.798 113.682 111.85 113.247C111.901 112.811 111.946 112.376 112 111.943C112.054 111.51 112.102 111.072 112.16 110.639C112.205 110.279 112.253 109.921 112.301 109.561C112.37 109.053 112.443 108.542 112.521 108.038C112.521 107.963 112.542 107.884 112.554 107.812C113.103 104.118 113.852 100.455 114.796 96.8413C115.785 93.05 117.047 89.3352 118.573 85.726C120.196 81.9503 122.095 78.2994 124.256 74.803L141.812 74.788Z" fill="#587EEC"/>
<path opacity="0.1" d="M149.105 119.769V161.328H214.348V119.769H149.105ZM149.105 162.611V198.3C149.478 198.378 149.848 198.453 150.215 198.516C150.715 198.612 151.212 198.7 151.72 198.775C151.816 198.79 151.916 198.805 152.021 198.814C152.22 198.847 152.424 198.874 152.623 198.901C153.126 198.97 153.625 199.027 154.128 199.072C154.366 199.096 154.607 199.117 154.847 199.135L155.428 199.18C155.744 199.204 156.057 199.222 156.367 199.231C156.56 199.231 156.753 199.249 156.951 199.255C157.102 199.255 157.252 199.255 157.409 199.255C157.565 199.255 157.788 199.255 157.978 199.255C158.236 199.255 158.495 199.255 158.751 199.255H159.097C159.356 199.255 159.615 199.255 159.871 199.231H159.889C160.066 199.231 160.247 199.231 160.427 199.207C160.478 199.21 160.528 199.21 160.578 199.207C160.728 199.207 160.879 199.207 161.023 199.186H161.129L162.137 199.108C162.468 199.078 162.802 199.039 163.139 199.003L163.826 198.922C166.617 198.531 169.378 197.945 172.087 197.167C178.173 195.473 184.127 193.103 190.209 191.366C198.074 189.128 206.763 188.029 214.363 190.766V162.611H149.105ZM214.348 73.5023V18.1752C207.205 18.098 200.081 18.9318 193.15 20.6566C176.629 24.7993 161.806 33.7847 149.105 45.2605V73.4993H152.379V74.7821H149.105V118.486H214.348V74.7851H165.824V73.5023H214.348ZM298.149 54.8136C294.062 54.6694 289.999 53.3776 286.324 51.3829C279.296 47.5676 273.683 41.6765 267.41 36.7047C254.378 26.3494 238.215 20.1009 221.634 18.5507V73.5023H314.772L315.004 73.259L298.149 54.8136ZM306.634 53.3115L315.63 63.1651V50.728C312.617 51.1005 309.978 51.9867 306.646 53.2995L306.634 53.3115ZM315.63 207.162V162.611H296.461C296.41 162.422 296.358 162.229 296.298 162.037C296.355 162.229 296.403 162.422 296.458 162.611H221.646V194.83C222.357 195.356 223.058 195.909 223.753 196.47C224.503 197.071 225.243 197.705 225.987 198.327L226.736 198.946C227.094 199.246 227.455 199.547 227.82 199.829C228.542 200.414 229.271 200.991 230.008 201.559C230.372 201.86 230.745 202.13 231.115 202.413C236.992 206.898 243.192 210.945 249.665 214.522C251.115 215.323 252.579 216.105 254.056 216.869C255.04 217.37 256.03 217.869 257.023 218.353C258.516 219.08 260.021 219.781 261.538 220.455C275.524 226.722 290.312 231.021 305.481 233.232C308.85 233.729 312.232 234.119 315.627 234.404V207.159H315.928L315.63 207.162ZM221.646 74.7851V118.486H315.642V74.7851H221.646ZM221.646 119.769V161.328H315.642V119.769H221.646ZM322.938 50.6739V64.547L334.42 51.9717C330.616 51.3589 326.788 50.9213 322.938 50.6589V50.6739ZM322.938 119.784V161.328H414.36V119.769L322.938 119.784ZM414.026 210.461L414.348 162.611H322.938V234.881C328.826 235.128 334.724 235.058 340.605 234.671V234.671H340.708C343.517 234.495 346.313 234.238 349.096 233.902H349.159C364.006 232.177 378.524 228.311 392.259 222.423L414.026 210.461ZM431.988 126.612C431.645 125.804 431.287 125.002 430.923 124.209C430.243 122.707 429.523 121.247 428.783 119.787H421.65V161.328H439.684C439.675 149.564 436.693 137.547 431.997 126.597L431.988 126.612ZM421.65 162.626V203.783C426.73 198.922 431.022 193.361 434.113 187.004C437.83 179.35 439.531 171.062 439.669 162.62L421.65 162.626ZM421.65 107.674V118.489H428.115C426.159 114.766 424.004 111.151 421.659 107.659L421.65 107.674ZM359.648 58.8271C359.173 58.6469 358.697 58.4636 358.218 58.2864C353.171 56.426 348.014 54.8789 342.775 53.654L325.204 72.9015L324.867 73.259L325.093 73.5053H387.63C378.92 67.5212 369.53 62.5891 359.657 58.8121L359.648 58.8271ZM389.463 74.8001H324.22L322.938 75.9717V118.486H334.176H334.194H414.372V97.8929C407.119 89.1376 398.748 81.3688 389.472 74.7851L389.463 74.8001Z" fill="#587EEC"/>
<path opacity="0.1" d="M141.812 96.8293V118.486H111.362C111.362 118.36 111.383 118.231 111.392 118.105C111.419 117.759 111.446 117.414 111.476 117.071C111.509 116.669 111.546 116.263 111.585 115.87C111.624 115.476 111.666 114.995 111.711 114.56C111.756 114.124 111.798 113.683 111.85 113.247C111.901 112.811 111.946 112.376 112 111.943C112.054 111.511 112.102 111.072 112.16 110.639C112.205 110.279 112.253 109.921 112.301 109.561C112.37 109.053 112.443 108.542 112.521 108.038C112.521 107.963 112.542 107.885 112.554 107.812C113.103 104.118 113.852 100.456 114.796 96.8414L141.812 96.8293Z" fill="#587EEC"/>
<path opacity="0.1" d="M111.266 119.772H141.812V161.328H113.502C113.427 161.755 113.354 162.184 113.276 162.614H141.812V196.128C141.761 196.113 141.716 196.095 141.668 196.077C140.861 195.758 140.06 195.422 139.26 195.061L138.748 194.83C137.945 194.452 137.143 194.051 136.34 193.628C136.06 193.481 135.78 193.328 135.503 193.172C131.048 190.681 127 187.524 123.5 183.811C123.398 183.712 123.302 183.607 123.199 183.511C122.712 182.982 122.233 182.447 121.77 181.9L121.258 181.3C120.71 180.63 120.181 179.942 119.666 179.245C119.591 179.143 119.519 179.04 119.44 178.944C117.347 176.047 115.609 172.911 114.263 169.601C114.221 169.502 114.185 169.394 114.146 169.301C113.733 168.24 113.367 167.168 113.047 166.087C112.909 165.633 112.777 165.185 112.662 164.714C112.62 164.575 112.584 164.44 112.551 164.305C110.841 157.645 110.64 150.726 110.64 143.856C110.64 143.054 110.64 142.249 110.64 141.453C110.64 138.674 110.673 135.877 110.721 133.083C110.721 132.359 110.751 131.638 110.766 130.911C110.808 129.067 110.868 127.222 110.947 125.378C110.965 124.864 110.989 124.353 111.016 123.842C111.016 123.548 111.031 123.254 111.061 122.959C111.133 121.89 111.193 120.829 111.266 119.772Z" fill="#587EEC"/>
<path opacity="0.1" d="M172.072 81.0426V118.486H149.105V81.0426H152.379V68.3651H165.821V81.0426H172.072Z" fill="#587EEC"/>
<path opacity="0.1" d="M172.072 119.769H149.108V161.325H172.072V119.769Z" fill="#587EEC"/>
<path opacity="0.1" d="M149.105 162.614H172.072V197.161C169.363 197.938 166.602 198.524 163.81 198.913L163.124 198.997C162.787 199.036 162.453 199.069 162.122 199.102C161.791 199.135 161.448 199.159 161.114 199.18H161.008C160.864 199.18 160.707 199.198 160.566 199.201H160.412C160.232 199.201 160.051 199.219 159.871 199.225C159.615 199.24 159.359 199.243 159.097 199.246C158.986 199.246 158.88 199.246 158.769 199.246C158.51 199.246 158.254 199.246 157.996 199.246H157.427C157.273 199.246 157.126 199.246 156.966 199.246L156.385 199.225C156.084 199.225 155.759 199.192 155.446 199.171L154.868 199.129L154.149 199.063C153.643 199.018 153.141 198.961 152.644 198.892L152.042 198.808L151.741 198.766C151.239 198.687 150.742 198.603 150.236 198.507C149.866 198.444 149.499 198.366 149.126 198.291L149.105 162.614Z" fill="#587EEC"/>
<path opacity="0.1" d="M315.642 76.6206H296.704V118.483H315.642V76.6206Z" fill="#587EEC"/>
<path opacity="0.1" d="M315.645 119.769V161.328H221.646V143.402H271.714V153.977H296.704V119.769H315.645Z" fill="#587EEC"/>
<path opacity="0.1" d="M315.943 207.171H315.642V234.434C312.251 234.147 308.87 233.758 305.499 233.265C290.323 231.047 275.528 226.738 261.538 220.461C257.499 218.647 253.542 216.666 249.668 214.519C243.195 210.94 236.995 206.893 231.115 202.41C229.638 201.28 228.181 200.124 226.742 198.943C225.746 198.123 224.756 197.282 223.753 196.464C223.058 195.903 222.357 195.35 221.646 194.821V162.614H296.455C296.403 162.422 296.352 162.229 296.298 162.04C296.355 162.229 296.41 162.422 296.461 162.614H315.642V207.153C315.744 207.156 315.844 207.165 315.943 207.171Z" fill="#587EEC"/>
<path opacity="0.1" d="M365.033 73.5021H352.692V69.6749H358.224V58.2742C358.704 58.4484 359.182 58.6277 359.657 58.8119V69.6749H365.033V73.5021Z" fill="#587EEC"/>
<path opacity="0.1" d="M394.763 118.486H334.182C334.182 118.486 334.182 118.486 334.203 118.501L334.176 118.486H322.938V76.6235H326.122V107.566H340.674V89.2409H352.695V74.788H365.036V89.2529H377.057V107.578H394.763V118.486Z" fill="#587EEC"/>
<path opacity="0.1" d="M322.938 119.769V161.328H394.763V119.769H322.938ZM414.261 210.247L414.36 177.352H394.763V162.632H322.938V234.881C328.826 235.128 334.724 235.058 340.605 234.671V234.671H340.708C343.517 234.495 346.313 234.238 349.096 233.902H349.159C364.006 232.177 378.524 228.311 392.259 222.423" fill="#587EEC"/>
<path opacity="0.1" d="M422.926 162.614H439.681C439.534 171.052 437.836 179.341 434.122 186.995C431.031 193.355 426.736 198.916 421.662 203.773V177.337H422.926V162.614Z" fill="#587EEC"/>
<path opacity="0.1" d="M439.69 161.328H422.926V126.597H431.997C436.692 137.547 439.675 149.564 439.69 161.328Z" fill="#587EEC"/>
<path opacity="0.1" d="M315.645 88.2585H305.499V101.384H315.645V88.2585Z" fill="#587EEC"/>
<path opacity="0.1" d="M315.645 115.464H305.499V118.486H315.645V115.464Z" fill="#587EEC"/>
<path opacity="0.1" d="M315.645 119.769H305.499V128.586H315.645V119.769Z" fill="#587EEC"/>
<path opacity="0.1" d="M315.645 142.669H305.499V155.794H315.645V142.669Z" fill="#587EEC"/>
<path opacity="0.1" d="M315.645 169.875H305.499V183H315.645V169.875Z" fill="#587EEC"/>
<path opacity="0.1" d="M315.642 207.153C315.744 207.153 315.844 207.153 315.943 207.171H315.642V210.22H305.499V197.08H315.642V207.153Z" fill="#587EEC"/>
<path opacity="0.1" d="M315.642 224.28V234.418C312.251 234.132 308.87 233.743 305.499 233.25V224.28H315.642Z" fill="#587EEC"/>
<path opacity="0.1" d="M265.129 160.364H221.646V161.328H265.129V160.364Z" fill="#587EEC"/>
<path opacity="0.1" d="M265.129 162.611H221.646V166.306H265.129V162.611Z" fill="#587EEC"/>
<path opacity="0.1" d="M265.129 178.419H221.646V184.361H265.129V178.419Z" fill="#587EEC"/>
<path opacity="0.1" d="M265.126 196.474V202.416H231.115C229.639 201.29 228.18 200.135 226.739 198.949C225.743 198.129 224.756 197.288 223.75 196.474H265.126Z" fill="#587EEC"/>
<path opacity="0.1" d="M265.126 214.525V220.461H261.535C257.5 218.645 253.544 216.663 249.668 214.516L265.126 214.525Z" fill="#587EEC"/>
<path opacity="0.1" d="M349.168 123.797H340.608V132.341H349.168V123.797Z" fill="#587EEC"/>
<path opacity="0.1" d="M163.832 83.9897H155.272V92.5335H163.832V83.9897Z" fill="#587EEC"/>
<path opacity="0.1" d="M163.832 103.835H155.272V112.379H163.832V103.835Z" fill="#587EEC"/>
<path opacity="0.1" d="M163.832 123.68H155.272V132.224H163.832V123.68Z" fill="#587EEC"/>
<path opacity="0.1" d="M163.832 143.523H155.272V152.066H163.832V143.523Z" fill="#587EEC"/>
<path opacity="0.1" d="M163.832 163.368H155.272V171.912H163.832V163.368Z" fill="#587EEC"/>
<path opacity="0.1" d="M163.832 183.213H155.272V191.757H163.832V183.213Z" fill="#587EEC"/>
<path opacity="0.1" d="M381.845 123.797H373.285V132.341H381.845V123.797Z" fill="#587EEC"/>
<path opacity="0.1" d="M349.168 144.871H340.608V153.415H349.168V144.871Z" fill="#587EEC"/>
<path opacity="0.1" d="M381.845 144.871H373.285V153.415H381.845V144.871Z" fill="#587EEC"/>
<path opacity="0.1" d="M349.168 165.942H340.608V174.486H349.168V165.942Z" fill="#587EEC"/>
<path opacity="0.1" d="M381.845 165.942H373.285V174.486H381.845V165.942Z" fill="#587EEC"/>
<path opacity="0.1" d="M349.168 187.016H340.608V195.56H349.168V187.016Z" fill="#587EEC"/>
<path opacity="0.1" d="M381.845 187.016H373.285V195.56H381.845V187.016Z" fill="#587EEC"/>
<path opacity="0.1" d="M349.168 208.09H340.608V216.634H349.168V208.09Z" fill="#587EEC"/>
<path opacity="0.1" d="M381.845 208.09H373.285V216.634H381.845V208.09Z" fill="#587EEC"/>
<path opacity="0.1" d="M340.608 234.671V229.161H349.165V233.887L340.608 234.671Z" fill="#587EEC"/>
<path opacity="0.1" d="M112.518 107.807V112.694H141.812V107.807H112.518ZM115.437 112.388H113.047V108.107H115.455L115.437 112.388ZM118.354 112.388H115.946V108.107H118.354V112.388ZM121.264 112.388H118.856V108.107H121.264V112.388ZM124.181 112.388H121.776V108.107H124.184L124.181 112.388ZM127.094 112.388H124.686V108.107H127.094V112.388ZM130.011 112.388H127.603V108.107H130.011V112.388ZM132.927 112.388H130.519V108.107H132.927V112.388ZM135.841 112.388H133.433V108.107H135.841V112.388ZM138.754 112.388H136.346V108.107H138.754V112.388ZM141.668 112.388H139.26V108.107H141.668V112.388Z" fill="#587EEC"/>
<path opacity="0.1" d="M112.518 122.028V126.916H141.812V122.028H112.518ZM115.437 126.606H113.047V122.338H115.455L115.437 126.606ZM118.354 126.606H115.946V122.338H118.354V126.606ZM121.264 126.606H118.856V122.338H121.264V126.606ZM124.181 126.606H121.776V122.338H124.184L124.181 126.606ZM127.094 126.606H124.686V122.338H127.094V126.606ZM130.011 126.606H127.603V122.338H130.011V126.606ZM132.927 126.606H130.519V122.338H132.927V126.606ZM135.841 126.606H133.433V122.338H135.841V126.606ZM138.754 126.606H136.346V122.338H138.754V126.606ZM141.668 126.606H139.26V122.338H141.668V126.606Z" fill="#587EEC"/>
<path opacity="0.1" d="M112.518 136.255V141.152H141.812V136.255H112.518ZM115.437 140.834H113.047V136.562H115.455L115.437 140.834ZM118.354 140.834H115.946V136.562H118.354V140.834ZM121.264 140.834H118.856V136.562H121.264V140.834ZM124.181 140.834H121.776V136.562H124.184L124.181 140.834ZM127.094 140.834H124.686V136.562H127.094V140.834ZM130.011 140.834H127.603V136.562H130.011V140.834ZM132.927 140.834H130.519V136.562H132.927V140.834ZM135.841 140.834H133.433V136.562H135.841V140.834ZM138.754 140.834H136.346V136.562H138.754V140.834ZM141.668 140.834H139.26V136.562H141.668V140.834Z" fill="#587EEC"/>
<path opacity="0.1" d="M112.518 150.483V155.365H141.812V150.483H112.518ZM115.437 155.061H113.047V150.786H115.455L115.437 155.061ZM118.354 155.061H115.946V150.786H118.354V155.061ZM121.264 155.061H118.856V150.786H121.264V155.061ZM124.181 155.061H121.776V150.786H124.184L124.181 155.061ZM127.094 155.061H124.686V150.786H127.094V155.061ZM130.011 155.061H127.603V150.786H130.011V155.061ZM132.927 155.061H130.519V150.786H132.927V155.061ZM135.841 155.061H133.433V150.786H135.841V155.061ZM138.754 155.061H136.346V150.786H138.754V155.061ZM141.668 155.061H139.26V150.786H141.668V155.061Z" fill="#587EEC"/>
<path opacity="0.1" d="M112.644 164.708C112.762 165.167 112.894 165.627 113.032 166.081V165.014H115.44V169.286H114.152C114.191 169.385 114.23 169.493 114.269 169.586H141.812V164.708H112.644ZM118.363 169.286H115.955V165.014H118.363V169.286ZM121.273 169.286H118.865V165.014H121.273V169.286ZM124.19 169.286H121.776V165.014H124.184L124.19 169.286ZM127.103 169.286H124.695V165.014H127.103V169.286ZM130.02 169.286H127.612V165.014H130.02V169.286ZM132.936 169.286H130.528V165.014H132.936V169.286ZM135.85 169.286H133.442V165.014H135.85V169.286ZM138.763 169.286H136.355V165.014H138.763V169.286ZM141.677 169.286H139.269V165.014H141.677V169.286Z" fill="#587EEC"/>
<path opacity="0.1" d="M119.446 178.935C119.522 179.031 119.594 179.139 119.672 179.236H121.264V181.287C121.436 181.492 121.604 181.696 121.779 181.888V179.224H124.187V183.51H123.212C123.308 183.61 123.401 183.715 123.513 183.811H141.821V178.935H119.446ZM127.094 183.51H124.686V179.242H127.094V183.51ZM130.011 183.51H127.603V179.242H130.011V183.51ZM132.927 183.51H130.519V179.242H132.927V183.51ZM135.841 183.51H133.433V179.242H135.841V183.51ZM138.754 183.51H136.346V179.242H138.754V183.51ZM141.668 183.51H139.26V179.242H141.668V183.51Z" fill="#587EEC"/>
<path opacity="0.1" d="M135.515 193.16C135.789 193.316 136.069 193.46 136.352 193.616V193.466H138.76V194.818L139.272 195.055V193.466H141.679V196.065C141.726 196.088 141.774 196.106 141.824 196.119V193.16H135.515Z" fill="#587EEC"/>
<path opacity="0.1" d="M334.182 118.486H334.2H334.182ZM315.642 207.15H315.943H315.642ZM296.298 162.037C296.355 162.229 296.404 162.421 296.458 162.611C296.41 162.421 296.358 162.229 296.298 162.037ZM334.182 118.477H334.2H334.182ZM152.391 73.4932V74.7759H165.836V73.4932H152.391ZM315.642 207.15H315.943H315.642ZM296.298 162.037C296.355 162.229 296.404 162.421 296.458 162.611C296.41 162.421 296.358 162.229 296.298 162.037ZM334.182 118.477H334.2H334.182ZM315.642 207.141H315.943H315.642ZM296.298 162.037C296.355 162.229 296.404 162.421 296.458 162.611C296.41 162.421 296.358 162.229 296.298 162.037Z" fill="#587EEC"/>
<path d="M246.032 132.23C246.032 132.23 244.846 132.065 244.846 130.34C244.846 128.616 243.997 125.395 243.997 125.395C243.997 125.38 243.263 119.787 242.248 118.898C241.234 118.008 239.931 112.787 239.931 112.787C239.931 112.787 239.708 109.954 239.254 109.344C238.799 108.735 238.185 107.241 237.279 105.112C236.373 102.982 232.596 101.507 232.596 101.507C232.596 101.507 225.767 97.5532 223.832 96.2644C223.656 96.1585 223.491 96.0347 223.341 95.8949C223.004 95.4533 221.535 95.4443 221.535 95.4443C221.382 94.4769 221.234 93.3654 221.186 92.359C221.186 92.2509 221.186 92.1427 221.171 92.0346C223.329 90.7614 224.954 88.7539 225.749 86.3808C225.785 86.2666 225.815 86.1465 225.848 86.0323C225.977 85.9898 226.096 85.9208 226.197 85.8298C226.299 85.7387 226.379 85.6276 226.435 85.5036C226.61 85.1161 226.613 84.6624 226.829 84.3019C227.082 83.8753 227.564 83.647 227.943 83.3256C228.9 82.5145 229.147 81.1476 229.102 79.9039C229.072 78.8975 228.909 77.8821 228.972 76.8817L228.99 76.6294C229.008 76.4792 229.029 76.329 229.057 76.1848C229.204 75.4397 229.526 74.7368 229.707 73.9978C229.887 73.2587 229.905 72.4266 229.484 71.7897C228.867 70.8554 227.582 70.6692 226.453 70.573C225.174 70.4649 224.03 70.6061 223.212 69.5456C222.828 68.9914 222.397 68.4717 221.923 67.9925C221.755 67.8363 220.117 66.8389 220.117 66.7728C218.519 66.0341 216.708 65.8954 215.016 66.3823C214.167 66.6286 213.367 67.0312 212.506 67.2325C210.649 67.6711 208.512 67.1964 206.935 68.2569C206.056 68.8577 205.529 69.813 205.035 70.7443C204.634 71.5113 204.227 72.2774 203.813 73.0424C203.148 74.3012 202.471 75.5809 202.191 76.9749C202.132 77.2782 202.096 77.5854 202.083 77.8941V77.9091C202.083 78.0203 202.083 78.1314 202.083 78.2426V78.3838C202.083 78.4889 202.083 78.5911 202.101 78.6842C202.119 78.7773 202.116 78.8074 202.125 78.8705C202.134 78.9335 202.149 79.0747 202.167 79.1709C202.185 79.267 202.221 79.4352 202.257 79.5674C202.272 79.6245 202.294 79.6786 202.312 79.7326C202.342 79.8348 202.378 79.9339 202.417 80.0331C202.438 80.0841 202.459 80.1382 202.483 80.1893C202.528 80.2944 202.582 80.3966 202.637 80.4897C202.661 80.5317 202.679 80.5708 202.703 80.6099C202.787 80.7496 202.879 80.884 202.98 81.0124C203.624 81.8145 204.572 82.3252 205.273 83.0762C205.273 83.1063 205.273 83.1363 205.273 83.1634C205.273 83.2475 205.273 83.3286 205.273 83.4127C205.31 85.0877 205.757 86.7282 206.574 88.1916C207.392 89.6549 208.555 90.8969 209.962 91.8093C209.962 91.9234 209.978 92.0406 209.984 92.1547C210.042 93.0465 210.031 93.9414 209.95 94.8314C209.828 94.6873 209.674 94.5726 209.502 94.4956C209.329 94.4187 209.14 94.3815 208.951 94.3868C208.822 94.3805 208.692 94.3916 208.566 94.4199L208.539 94.3988V94.4259C207.877 94.5881 207.061 95.276 206.282 97.2317C206.282 97.2317 203.91 99.8994 202.104 99.7882C200.298 99.6771 195.726 102.564 195.726 102.564C195.726 102.564 191.266 105.454 190.309 108.398C189.774 110.068 189.132 111.701 188.388 113.289L182.874 124.629L181.857 133.627C181.857 133.627 182.42 137.628 182.309 138.238C182.197 138.848 184.623 144.349 184.623 144.349C184.623 144.349 192.638 158.405 195.913 159.126L196.148 158.961C196.288 159.034 196.436 159.089 196.59 159.126L197.264 158.651C197.305 159.18 197.288 159.712 197.213 160.237C196.762 161.625 197.382 170.683 198.17 172.458C198.959 174.234 198.679 197.513 198.679 197.513L198.567 199.567C198.567 199.567 198.567 199.634 198.595 199.748L198.567 200.234L198.649 200.276C198.733 200.928 198.706 201.59 198.567 202.232C198.285 203.133 198.17 205.681 198.17 205.681C198.17 205.681 195.916 220.065 196.984 222.955C198.053 225.845 198.962 229.011 198.962 229.011C198.962 229.011 200.09 232.616 199.016 233.232C197.941 233.848 194.886 234.881 195.516 236.383C196.087 237.771 198.257 241.49 198.579 242.034L198.552 242.319L198.11 247.105C198.182 247.737 198.353 248.353 198.619 248.931C199.103 249.974 200.045 251.055 201.836 250.938C202.137 250.917 202.486 250.881 202.823 250.836C206.101 250.397 210.137 248.937 210.137 248.937C209.927 248.805 209.735 248.646 209.565 248.466V248.466C209.404 248.31 209.276 248.123 209.19 247.917C209.104 247.71 209.06 247.488 209.063 247.264C209.111 246.393 207.476 242.241 207.07 241.22C207.007 241.073 206.974 240.988 206.974 240.988C206.974 240.988 210.7 237.101 210.08 233.655C210.08 233.655 205.956 231.252 207.314 229.933C208.671 228.614 211.097 224.826 211.097 224.826C211.097 224.826 211.209 210.662 211.097 208.547C210.981 207.079 211.051 205.602 211.305 204.152C211.35 203.933 211.404 203.719 211.461 203.509C213.339 203.789 215.234 203.932 217.132 203.939C217.824 203.939 218.528 203.938 219.239 203.896C219.239 204.097 219.248 204.313 219.266 204.545C219.422 208.054 219.714 214.207 219.952 216.493C220.289 219.77 222.152 228.602 222.152 228.602C222.152 228.602 218.598 230.88 222.772 236.491C222.772 236.491 222.772 238.525 222.495 238.819C222.2 239.782 221.961 240.761 221.782 241.752C221.607 242.809 221.535 243.878 221.818 244.434C222.495 245.762 226.558 245.654 226.558 245.654L226.658 245.636C227.425 245.557 228.2 245.63 228.938 245.853C229.677 246.075 230.363 246.441 230.959 246.931C232.503 248.168 238.363 247.625 241.535 247.231C242.778 247.075 243.609 246.931 243.609 246.931C243.649 246.79 243.663 246.644 243.651 246.498C243.618 245.72 243.007 244.014 238.865 242.491C238.865 242.491 234.971 239.877 235.025 237.6H234.944H234.492C234.82 237.582 235.031 237.6 235.031 237.6C235.031 237.6 233.505 232.042 234.128 231.592C234.751 231.141 232.885 224.982 232.885 224.982C232.885 224.982 231.817 214.648 231.759 213.924C231.762 213.303 231.856 212.685 232.039 212.092L231.759 206.426C231.759 206.426 231.705 204.542 231.759 203.929C231.75 203.398 231.707 202.867 231.63 202.34C231.603 202.13 231.576 201.911 231.546 201.694C233.005 201.325 233.953 200.982 233.953 200.982L233.785 181.26C235.025 178.857 235.254 173.585 235.248 169.845C235.248 167.441 235.139 165.663 235.139 165.663L236.834 162.902C236.834 162.902 237.225 159.598 236.605 158.874C236.331 158.546 236.455 158.207 236.68 157.927C236.798 157.834 236.921 157.75 237.051 157.675C237.051 157.675 237.032 157.648 237.011 157.609C237.13 157.51 237.255 157.421 237.388 157.341C237.388 157.341 236.786 156.41 237.324 156.017C237.83 156.359 238.282 156.617 238.625 156.828C238.601 157.047 238.576 157.173 238.576 157.173L238.721 156.873C239.052 157.059 239.254 157.173 239.254 157.173C239.254 157.173 241.908 151.895 241.851 151.117C241.794 150.339 243.657 147.061 243.657 147.061C243.657 147.061 243.883 145.34 244.9 144.619C245.917 143.898 245.689 138.674 245.689 138.674C245.689 138.674 245.972 135.952 246.649 134.84C247.326 133.729 246.032 132.23 246.032 132.23ZM195.239 129.914L195.29 131.172C194.989 130.689 194.772 130.34 194.772 130.34L195.239 129.914Z" fill="url(#paint0_linear_6_373)"/>
<path d="M239.398 154.893L238.748 157.657C238.748 157.657 233.541 155.004 232.602 151.634C231.663 148.263 234.173 146.983 234.173 146.983L239.025 149.035L239.398 154.893Z" fill="white"/>
<path opacity="0.1" d="M239.398 154.893L238.748 157.657C238.748 157.657 233.541 155.004 232.602 151.634C231.663 148.263 234.173 146.983 234.173 146.983L239.025 149.035L239.398 154.893Z" fill="black"/>
<path d="M210.176 248.956C210.176 248.956 205.361 250.722 202.05 250.944C200.292 251.061 199.368 249.986 198.893 248.95C198.633 248.373 198.465 247.76 198.396 247.132L198.826 242.37L199.055 239.835L206.089 238.011L207.085 241.052L207.178 241.283C207.579 242.298 209.183 246.429 209.135 247.291C209.133 247.512 209.176 247.731 209.26 247.935C209.345 248.139 209.47 248.323 209.628 248.478C209.79 248.66 209.974 248.82 210.176 248.956V248.956Z" fill="white"/>
<path d="M243.07 246.534C243.082 246.679 243.068 246.824 243.028 246.964C243.028 246.964 232.729 248.679 230.622 246.964C230.028 246.463 229.335 246.091 228.589 245.873C227.843 245.655 227.059 245.594 226.288 245.696C226.288 245.696 222.303 245.804 221.637 244.495C221.361 243.945 221.433 242.878 221.604 241.827C221.779 240.842 222.013 239.868 222.303 238.91L222.462 238.784L223.41 238.024L234.51 237.696H234.595C234.54 239.961 238.363 242.56 238.363 242.56C242.423 244.062 243.022 245.759 243.07 246.534Z" fill="white"/>
<path opacity="0.1" d="M243.07 246.534C243.081 246.679 243.065 246.824 243.025 246.964C243.025 246.964 232.729 248.679 230.622 246.964C230.028 246.463 229.336 246.092 228.59 245.873C227.844 245.655 227.061 245.595 226.291 245.696C226.291 245.696 222.303 245.804 221.64 244.494C221.364 243.942 221.433 242.878 221.604 241.827C223.139 241.98 225.562 242.362 226.513 243.272C227.952 244.657 230.39 246.039 231.886 246.147C233.057 246.222 240.06 246.444 243.07 246.534Z" fill="black"/>
<path opacity="0.1" d="M210.176 248.956C210.176 248.956 205.361 250.722 202.05 250.944C200.292 251.061 199.368 249.986 198.896 248.947C200.121 249.358 201.821 249.791 202.715 249.394C203.774 248.926 207.531 248.622 209.638 248.493C209.798 248.668 209.979 248.823 210.176 248.956V248.956Z" fill="black"/>
<path d="M217.321 106.605C213.349 105.064 208.238 99.9716 209.514 97.5924C209.797 96.9919 209.966 96.3439 210.011 95.6817C210.093 94.7828 210.105 93.8788 210.047 92.978C209.957 91.5027 209.779 90.034 209.514 88.58C209.514 88.58 221.917 88.8593 221.195 90.6828C220.984 91.2176 220.951 92.1459 221.008 93.1853C221.066 94.2247 221.216 95.3993 221.373 96.3937C221.589 97.7576 221.806 98.797 221.806 98.797C221.806 98.797 221.048 99.8575 220.602 99.9145C220.157 99.9716 223.022 108.801 217.321 106.605Z" fill="#CF6F80"/>
<path opacity="0.1" d="M207.169 241.283L207.076 241.385C203.368 236.909 198.884 242.488 198.884 242.488L198.817 242.37L199.046 239.835L206.08 238.011L207.076 241.052L207.169 241.283Z" fill="black"/>
<path opacity="0.1" d="M234.598 238.012C234.598 238.012 231.889 237.954 230.444 239.228C228.999 240.502 222.017 239.505 222.318 239.228C222.407 239.091 222.461 238.934 222.474 238.772L223.422 238.012L234.522 237.684C234.564 237.885 234.598 238.012 234.598 238.012Z" fill="black"/>
<path d="M211.783 202.86C211.582 203.358 211.429 203.874 211.326 204.401C211.075 205.845 211.005 207.314 211.118 208.775C211.23 210.878 211.118 224.971 211.118 224.971C211.118 224.971 208.738 228.729 207.41 230.054C206.083 231.378 210.119 233.758 210.119 233.758C210.721 237.182 207.073 241.052 207.073 241.052C203.365 236.576 198.881 242.157 198.881 242.157C198.881 242.157 196.443 237.951 195.835 236.449C195.227 234.947 198.215 233.908 199.266 233.298C200.316 232.688 199.215 229.092 199.215 229.092C199.215 229.092 198.327 225.941 197.273 223.066C196.22 220.191 198.435 205.879 198.435 205.879C198.435 205.879 198.549 203.338 198.823 202.452C198.962 201.812 198.989 201.154 198.905 200.505C198.887 200.286 198.865 200.102 198.85 199.979C198.835 199.856 198.823 199.799 198.823 199.799L198.865 199.727L200.37 196.927C200.37 196.927 212.506 201.097 211.783 202.86Z" fill="#587EEC"/>
<path d="M234.598 237.681C234.598 237.681 231.889 237.624 230.444 238.883C228.999 240.142 222.017 239.159 222.318 238.883C222.619 238.607 222.595 236.561 222.595 236.561C218.498 230.979 221.993 228.714 221.993 228.714C221.993 228.714 220.163 219.927 219.832 216.667C219.6 214.39 219.314 208.271 219.16 204.777C219.094 203.275 219.055 202.241 219.055 202.241L222.402 201.569L222.832 201.481L230.905 199.865C230.905 199.865 231.127 201.367 231.278 202.596C231.353 203.121 231.395 203.649 231.404 204.179C231.35 204.78 231.404 206.661 231.404 206.661L231.678 212.299C231.499 212.891 231.407 213.505 231.404 214.123C231.458 214.841 232.509 225.121 232.509 225.121C232.509 225.121 234.336 231.255 233.713 231.697C233.09 232.139 234.598 237.681 234.598 237.681Z" fill="#587EEC"/>
<path opacity="0.1" d="M221.195 90.6828C220.984 91.2176 220.951 92.1459 221.008 93.1853C219.347 94.1839 217.437 94.6944 215.498 94.6583C213.559 94.6221 211.67 94.0408 210.047 92.981C209.957 91.5047 209.78 90.035 209.514 88.58C209.514 88.58 221.917 88.8533 221.195 90.6828Z" fill="black"/>
<path d="M225.99 84.0438C225.992 85.1263 225.821 86.2023 225.484 87.2311C224.73 89.5364 223.184 91.5014 221.118 92.7788C219.053 94.0562 216.602 94.5638 214.198 94.2118C211.794 93.8598 209.593 92.671 207.982 90.8554C206.371 89.0398 205.456 86.7144 205.397 84.2901C205.397 84.206 205.397 84.1279 205.397 84.0438C205.373 82.6792 205.622 81.3236 206.129 80.0561C206.636 78.7886 207.391 77.6345 208.35 76.6613C209.308 75.688 210.452 74.915 211.713 74.3873C212.974 73.8596 214.327 73.5879 215.695 73.5879C217.062 73.5879 218.416 73.8596 219.677 74.3873C220.938 74.915 222.081 75.688 223.039 76.6613C223.998 77.6345 224.753 78.7886 225.26 80.0561C225.767 81.3236 226.016 82.6792 225.993 84.0438H225.99Z" fill="#CF6F80"/>
<path opacity="0.1" d="M217.321 106.605C213.349 105.064 208.238 99.9717 209.514 97.5924C209.797 96.992 209.966 96.344 210.011 95.6818L215.449 100.143L218.814 102.898L221.373 96.3967C221.589 97.7606 221.806 98.8 221.806 98.8C221.806 98.8 221.048 99.8605 220.602 99.9176C220.157 99.9747 223.022 108.801 217.321 106.605Z" fill="black"/>
<path d="M231.386 126.321L226.844 202.476L220.921 202.863L205.583 158.705L208.099 106.28L208.629 95.2041L215.449 100.795L218.817 103.55L221.451 96.8594L226.348 101.119L231.386 126.321Z" fill="#587EEC"/>
<path opacity="0.1" d="M211.783 202.86C211.582 203.358 211.429 203.874 211.326 204.401C207.016 203.737 202.83 202.432 198.908 200.529L198.826 200.487L198.853 200.003L198.868 199.751L200.373 196.951C200.373 196.951 212.506 201.097 211.783 202.86Z" fill="black"/>
<path opacity="0.1" d="M222.471 204.413C221.369 204.6 220.258 204.727 219.142 204.792C219.076 203.29 219.037 202.256 219.037 202.256L222.384 201.583L222.471 204.413Z" fill="black"/>
<path opacity="0.1" d="M231.26 202.611C229.12 203.167 225.815 203.792 222.856 203.401L222.814 201.496L230.887 199.88C230.887 199.88 231.109 201.367 231.26 202.611Z" fill="black"/>
<path opacity="0.1" d="M222.802 203.749C210.462 205.852 199.16 199.823 199.16 199.823L199.269 197.78C199.269 197.78 199.549 174.621 198.772 172.846C197.996 171.07 197.391 162.067 197.83 160.685C198.27 159.303 196.226 138.581 196.226 138.581L195.895 130.169L183.777 125.269L189.195 113.998C189.927 112.418 190.556 110.792 191.079 109.131C192.021 106.205 196.394 103.33 196.394 103.33C196.394 103.33 200.879 100.458 202.652 100.566C204.425 100.675 206.748 98.025 206.748 98.025C208.464 93.66 210.017 95.6367 210.017 95.6367C210.017 95.844 210.017 95.6367 209.932 96.2826C209.33 101.074 219.666 116.215 219.814 116.482L220.798 140.413L221.794 170.698L222.802 203.749Z" fill="black"/>
<path d="M222.471 203.749C210.131 205.852 198.826 199.823 198.826 199.823L198.938 197.78C198.938 197.78 199.218 174.621 198.438 172.846C197.658 171.07 197.057 162.067 197.499 160.685C197.941 159.303 195.895 138.581 195.895 138.581L195.561 130.169L183.437 125.251L188.855 113.98C189.585 112.399 190.214 110.774 190.739 109.113C191.678 106.187 196.054 103.312 196.054 103.312C196.054 103.312 200.539 100.44 202.309 100.549C204.078 100.657 206.405 98.007 206.405 98.007C208.123 93.642 210.017 95.6187 210.017 95.6187C210.017 95.826 209.836 95.9191 209.932 96.2646C211.257 100.912 219.335 116.197 219.482 116.464L220.479 140.395L221.475 170.68L222.471 203.749Z" fill="white"/>
<path opacity="0.1" d="M219.145 117.146C217.818 116.594 210.787 108.582 210.787 108.582V106.758C210.531 106.157 209.011 106.524 207.777 106.944L208.307 95.868L208.909 96.3667C210.227 101.011 218.992 116.879 219.145 117.146Z" fill="black"/>
<path d="M219.479 116.482C218.149 115.93 211.118 107.918 211.118 107.918V106.094C210.862 105.493 209.343 105.86 208.109 106.28L208.641 95.2041L209.243 95.7028C210.564 100.347 219.332 116.218 219.479 116.482Z" fill="white"/>
<path opacity="0.1" d="M199.16 156.44C199.326 156.44 207.741 155.557 207.741 155.557C207.741 155.557 212.837 165.558 212.503 167.991C212.169 170.424 211.564 172.578 209.514 172.197C207.464 171.815 198.483 172.497 198.483 172.497L199.16 156.44Z" fill="black"/>
<path d="M198.826 155.777C198.992 155.777 207.407 154.893 207.407 154.893C207.407 154.893 212.5 164.897 212.169 167.327C211.838 169.758 211.227 171.915 209.18 171.533C207.133 171.152 198.149 171.834 198.149 171.834L198.826 155.777Z" fill="white"/>
<path d="M205.168 151.081C205.168 151.081 212.891 155.224 213.057 156.488C213.222 157.753 209.126 155.936 208.241 155.716C207.659 155.576 207.066 155.484 206.468 155.44L200.566 155.599L205.168 151.081Z" fill="#CF6F80"/>
<path opacity="0.1" d="M216.99 117.663C217.439 117.663 217.803 117.3 217.803 116.852C217.803 116.404 217.439 116.041 216.99 116.041C216.542 116.041 216.178 116.404 216.178 116.852C216.178 117.3 216.542 117.663 216.99 117.663Z" fill="black"/>
<path d="M216.99 117.333C217.439 117.333 217.803 116.97 217.803 116.522C217.803 116.074 217.439 115.71 216.99 115.71C216.542 115.71 216.178 116.074 216.178 116.522C216.178 116.97 216.542 117.333 216.99 117.333Z" fill="#3F3D56"/>
<path opacity="0.1" d="M218.486 152.775C218.935 152.775 219.299 152.412 219.299 151.964C219.299 151.516 218.935 151.153 218.486 151.153C218.037 151.153 217.674 151.516 217.674 151.964C217.674 152.412 218.037 152.775 218.486 152.775Z" fill="black"/>
<path d="M218.486 152.442C218.935 152.442 219.299 152.079 219.299 151.631C219.299 151.183 218.935 150.82 218.486 150.82C218.037 150.82 217.674 151.183 217.674 151.631C217.674 152.079 218.037 152.442 218.486 152.442Z" fill="#3F3D56"/>
<path opacity="0.1" d="M217.8 135.219C218.249 135.219 218.613 134.856 218.613 134.408C218.613 133.96 218.249 133.597 217.8 133.597C217.351 133.597 216.987 133.96 216.987 134.408C216.987 134.856 217.351 135.219 217.8 135.219Z" fill="black"/>
<path d="M217.8 134.889C218.249 134.889 218.613 134.526 218.613 134.078C218.613 133.63 218.249 133.267 217.8 133.267C217.351 133.267 216.987 133.63 216.987 134.078C216.987 134.526 217.351 134.889 217.8 134.889Z" fill="#3F3D56"/>
<path d="M236.533 155.272C236.533 155.272 237.087 156.101 236.533 156.488C235.979 156.876 236.587 157.813 236.587 157.813C236.587 157.813 235.206 158.621 235.814 159.348C236.422 160.075 236.036 163.359 236.036 163.359L234.375 166.105C234.375 166.105 234.474 167.874 234.48 170.265C234.48 173.996 234.261 179.242 233.045 181.633L233.213 201.253C233.213 201.253 227.395 203.374 222.525 202.728L221.803 171.245C221.803 171.245 222.856 153.391 223.245 149.966C223.472 148.188 223.564 146.396 223.522 144.604C223.522 144.604 223.356 139.245 222.799 136.757C222.799 136.757 222.197 125.981 222.137 122.998C222.11 121.571 222.185 117.408 222.27 113.448C222.363 109.119 222.468 105.037 222.468 105.037L221.37 96.3606C221.37 96.3606 222.468 96.2495 222.799 96.6911C222.948 96.8293 223.109 96.9531 223.281 97.0606V97.0606C225.177 98.3403 231.877 102.276 231.877 102.276C231.877 102.276 235.585 103.748 236.473 105.857C237.361 107.966 237.978 109.462 238.408 110.062C238.838 110.663 239.073 113.487 239.073 113.487C239.073 113.487 240.349 118.684 241.346 119.565C242.342 120.445 243.07 126.044 243.07 126.044L234.267 132.954C234.267 132.954 233.493 144.448 233.327 144.892C233.162 145.337 236.533 155.272 236.533 155.272Z" fill="white"/>
<path d="M236.867 155.272C236.867 155.272 237.418 156.101 236.867 156.489C236.316 156.876 236.918 157.813 236.918 157.813C236.918 157.813 235.546 158.63 236.148 159.357C236.75 160.084 236.37 163.368 236.37 163.368L234.709 166.114C234.709 166.114 234.808 167.883 234.817 170.275C234.817 174.006 234.598 179.251 233.382 181.642L233.547 201.262C233.547 201.262 227.72 203.383 222.856 202.737L222.137 171.254C222.137 171.254 223.19 153.4 223.579 149.976C223.806 148.198 223.898 146.405 223.853 144.613C223.853 144.613 223.687 139.254 223.133 136.766C223.133 136.766 222.531 125.991 222.468 123.007C222.441 121.581 222.519 117.417 222.601 113.457C222.694 109.128 222.799 105.046 222.799 105.046L221.349 96.2527C221.349 96.2527 222.799 96.2527 223.133 96.7003C223.28 96.8402 223.442 96.9641 223.615 97.0698C225.511 98.3496 232.214 102.285 232.214 102.285C232.214 102.285 235.919 103.757 236.807 105.866C237.695 107.975 238.312 109.471 238.745 110.072C239.178 110.673 239.407 113.496 239.407 113.496C239.407 113.496 240.683 118.694 241.68 119.574C242.676 120.454 243.395 126.042 243.395 126.042L234.592 132.951C234.592 132.951 233.818 144.445 233.649 144.89C233.481 145.334 236.867 155.272 236.867 155.272Z" fill="white"/>
<path opacity="0.1" d="M226.324 107.596L227.118 109.909L222.935 114.115C223.028 109.789 223.133 105.703 223.133 105.703L221.683 96.9104C221.683 96.9104 223.133 96.9104 223.467 97.358C223.614 97.4975 223.775 97.6205 223.949 97.7245L227.507 107.969L226.324 107.596Z" fill="black"/>
<path d="M225.99 106.932L226.787 109.245L222.604 113.451C222.697 109.122 222.802 105.04 222.802 105.04L221.349 96.2466C221.349 96.2466 222.802 96.2466 223.133 96.6942C223.281 96.8333 223.442 96.9571 223.615 97.0637L227.175 107.305L225.99 106.932Z" fill="white"/>
<path opacity="0.1" d="M225.99 84.0438C225.992 85.1263 225.821 86.2023 225.484 87.2311C225.427 87.24 225.369 87.2374 225.313 87.2235C225.257 87.2095 225.205 87.1846 225.159 87.15C225.081 84.4463 223.747 81.9078 222.107 79.7479C221.646 79.0957 221.088 78.5182 220.452 78.0355C219.808 77.5531 219.008 77.3271 218.206 77.4016C217.303 77.5248 216.506 78.1376 215.594 78.2157C214.39 78.3149 213.312 77.4827 212.118 77.4407C211.632 77.4453 211.153 77.5532 210.712 77.7573C210.271 77.9615 209.879 78.257 209.562 78.6243C208.935 79.3655 208.468 80.229 208.193 81.1598C207.72 82.5713 207.462 84.0458 207.428 85.5338C207.413 86.375 207.332 87.4294 206.549 87.7358C206.608 87.1172 206.538 86.4931 206.343 85.9031C206.147 85.3131 205.831 84.7699 205.415 84.3081L205.397 84.2901C205.397 84.206 205.397 84.1279 205.397 84.0438C205.373 82.6792 205.622 81.3236 206.129 80.0561C206.636 78.7886 207.391 77.6345 208.35 76.6613C209.308 75.688 210.452 74.915 211.713 74.3873C212.974 73.8596 214.327 73.5879 215.695 73.5879C217.062 73.5879 218.416 73.8596 219.677 74.3873C220.938 74.915 222.081 75.688 223.039 76.6613C223.998 77.6345 224.753 78.7886 225.26 80.0561C225.767 81.3236 226.016 82.6792 225.993 84.0438H225.99Z" fill="black"/>
<path d="M219.958 67.7224C218.394 66.9881 216.615 66.8492 214.956 67.3319C214.122 67.5782 213.336 67.9777 212.491 68.179C210.685 68.6146 208.578 68.143 207.028 69.1974C206.167 69.7982 205.649 70.7476 205.168 71.6698L203.964 73.959C203.308 75.2117 202.646 76.4854 202.372 77.8643C202.098 79.2432 202.263 80.7874 203.139 81.8959C203.777 82.704 204.719 83.2117 205.412 83.9717C205.826 84.434 206.141 84.9769 206.336 85.5662C206.53 86.1555 206.601 86.7786 206.543 87.3965C207.329 87.096 207.404 86.0386 207.422 85.1974C207.456 83.7094 207.713 82.2349 208.187 80.8234C208.461 79.8923 208.928 79.0287 209.556 78.2879C209.874 77.9209 210.266 77.6256 210.706 77.4215C211.147 77.2174 211.626 77.1093 212.111 77.1043C213.315 77.1464 214.396 77.9755 215.588 77.8764C216.491 77.8013 217.291 77.1854 218.2 77.0652C219.002 76.9895 219.803 77.2156 220.446 77.6991C221.082 78.181 221.639 78.7587 222.098 79.4115C223.741 81.5714 225.075 84.1039 225.153 86.8137C225.493 87.063 225.984 86.7385 226.152 86.354C226.321 85.9695 226.327 85.5189 226.54 85.1524C226.787 84.7288 227.26 84.5035 227.63 84.185C228.569 83.3769 228.804 82.0161 228.768 80.7814C228.732 79.5467 228.491 78.2939 228.725 77.0803C228.867 76.3352 229.186 75.6383 229.361 74.9023C229.535 74.1663 229.556 73.3401 229.144 72.7062C228.542 71.775 227.275 71.5917 226.17 71.5046C224.915 71.3964 223.792 71.5346 222.992 70.4802C222.616 69.9299 222.193 69.4133 221.728 68.9361C221.568 68.7798 219.958 67.7885 219.958 67.7224Z" fill="#512E4E"/>
<path opacity="0.1" d="M187.245 131.073L184.1 125.269L183.103 134.225C183.103 134.225 183.657 138.202 183.546 138.812C183.434 139.422 185.815 144.889 185.815 144.889C185.815 144.889 193.68 158.871 196.891 159.592L207.741 151.853L204.864 148.206C204.864 148.206 203.868 147.818 203.618 148.206C203.618 148.206 198.276 139.031 197.722 138.367C197.168 137.703 197.276 136.379 197.276 136.379C197.276 136.379 196.446 135.495 196.723 134.666C196.999 133.837 195.118 130.962 195.118 130.962L196.834 129.361L187.245 131.073Z" fill="black"/>
<path d="M184.265 124.609L183.434 125.27L182.438 134.225C182.438 134.225 182.992 138.202 182.88 138.812C182.769 139.422 185.153 144.89 185.153 144.89C185.153 144.89 193.014 158.871 196.226 159.592L207.079 151.853L204.199 148.206C204.199 148.206 203.202 147.819 202.953 148.206C202.953 148.206 197.61 139.031 197.057 138.368C196.503 137.704 196.614 136.379 196.614 136.379C196.614 136.379 195.783 135.496 196.06 134.666C196.337 133.837 194.453 130.962 194.453 130.962L196.169 129.361L184.265 124.609Z" fill="white"/>
<path opacity="0.1" d="M235.814 159.691C236.415 160.421 236.036 163.698 236.036 163.698L234.375 166.444C234.375 166.444 234.474 168.217 234.48 170.605L231.687 171.476C231.435 171.555 231.167 171.572 230.907 171.526C230.646 171.481 230.4 171.374 230.19 171.214C229.979 171.055 229.81 170.847 229.696 170.609C229.582 170.371 229.527 170.109 229.535 169.845L230.017 154.34L236.533 156.828C235.979 157.212 236.587 158.156 236.587 158.156C236.587 158.156 235.206 158.961 235.814 159.691Z" fill="black"/>
<path d="M236.148 159.357C236.75 160.087 236.37 163.368 236.37 163.368L234.709 166.114C234.709 166.114 234.808 167.883 234.817 170.274L231.973 171.161C231.726 171.237 231.464 171.254 231.209 171.209C230.954 171.164 230.713 171.059 230.507 170.903C230.301 170.747 230.136 170.543 230.024 170.31C229.912 170.077 229.858 169.821 229.866 169.562L230.351 154.01L236.87 156.497C236.313 156.882 236.921 157.822 236.921 157.822C236.921 157.822 235.546 158.63 236.148 159.357Z" fill="white"/>
<path d="M238.306 151.967C238.306 151.967 237.863 154.788 236.756 154.953C235.648 155.119 235.151 159.517 234.047 159.36C232.942 159.204 233.674 155.272 233.713 154.509C233.752 153.746 232.509 150.585 233.439 149.867C234.369 149.149 237.312 149.867 237.312 149.867L238.306 151.967Z" fill="#CF6F80"/>
<path opacity="0.1" d="M240.662 130.244L242.751 126.038C242.751 126.038 243.582 129.244 243.582 130.956C243.582 132.669 244.744 132.837 244.744 132.837C244.744 132.837 246.017 134.339 245.346 135.432C244.674 136.526 244.403 139.248 244.403 139.248C244.403 139.248 244.623 144.442 243.627 145.16C242.631 145.878 242.423 147.593 242.423 147.593C242.423 147.593 240.593 150.853 240.65 151.628C240.707 152.403 238.104 157.651 238.104 157.651C238.104 157.651 239.377 151.129 231.958 148.311C231.958 148.311 231.901 146.097 232.455 145.49C233.008 144.883 233.872 144.607 233.331 141.54C232.789 138.473 233.174 134.808 233.174 134.072C233.174 133.335 234.835 128.745 234.835 128.745L240.662 130.244Z" fill="black"/>
<path d="M241.565 125.438L243.389 126.038C243.389 126.038 244.223 129.244 244.223 130.956C244.223 132.669 245.385 132.837 245.385 132.837C245.385 132.837 246.658 134.339 245.987 135.432C245.315 136.526 245.048 139.248 245.048 139.248C245.048 139.248 245.267 144.442 244.271 145.16C243.275 145.878 243.052 147.593 243.052 147.593C243.052 147.593 241.225 150.853 241.282 151.628C241.34 152.403 238.733 157.651 238.733 157.651C238.733 157.651 240.009 151.129 232.587 148.311C232.587 148.311 232.533 146.097 233.087 145.49C233.641 144.883 234.504 144.607 233.963 141.54C233.421 138.473 233.806 134.808 233.806 134.071C233.806 133.335 235.467 128.745 235.467 128.745L241.565 125.438Z" fill="white"/>
<path opacity="0.1" d="M201.279 234.449C201.279 234.449 204.187 232.625 206.095 233.95C208.003 235.275 201.279 234.449 201.279 234.449Z" fill="black"/>
<path opacity="0.1" d="M223.871 228.81C223.871 228.81 226.444 228.479 228.605 230.802C230.766 233.124 223.871 228.81 223.871 228.81Z" fill="black"/>
<g opacity="0.1">
<path opacity="0.1" d="M227.636 83.5271C227.266 83.8455 226.79 84.0738 226.543 84.4974C226.333 84.8609 226.327 85.3085 226.158 85.6991C225.99 86.0896 225.499 86.408 225.159 86.1617C225.081 83.458 223.744 80.9195 222.104 78.7565C221.645 78.1037 221.088 77.5261 220.452 77.0442C219.807 76.5608 219.006 76.3347 218.203 76.4103C217.3 76.5335 216.506 77.1463 215.594 77.2214C214.39 77.3235 213.309 76.4914 212.114 76.4493C211.629 76.4542 211.15 76.5625 210.71 76.7672C210.27 76.9718 209.878 77.2681 209.562 77.636C208.934 78.3757 208.467 79.2383 208.193 80.1685C207.72 81.58 207.462 83.0545 207.428 84.5425C207.41 85.3806 207.332 86.4261 206.555 86.7385C206.573 86.9604 206.573 87.1835 206.555 87.4054C207.338 87.105 207.416 86.0475 207.434 85.2064C207.468 83.7184 207.726 82.2438 208.199 80.8324C208.473 79.9013 208.94 79.0377 209.568 78.2969C209.885 77.93 210.276 77.6346 210.717 77.4305C211.157 77.2264 211.635 77.1183 212.121 77.1133C213.324 77.1553 214.408 77.9844 215.6 77.8853C216.503 77.8102 217.303 77.1944 218.209 77.0742C219.012 76.9986 219.813 77.2247 220.458 77.7081C221.094 78.19 221.651 78.7677 222.11 79.4204C223.75 81.5804 225.087 84.1129 225.165 86.8226C225.505 87.072 225.996 86.7475 226.164 86.363C226.333 85.9784 226.339 85.5278 226.549 85.1613C226.796 84.7377 227.272 84.5124 227.642 84.194C228.581 83.3859 228.816 82.025 228.78 80.7903C228.78 80.7513 228.78 80.7122 228.78 80.6762C228.722 81.7456 228.437 82.8361 227.636 83.5271Z" fill="black"/>
<path opacity="0.1" d="M205.418 83.3137C204.725 82.5537 203.78 82.046 203.145 81.2409C202.611 80.5282 202.305 79.6702 202.269 78.7805C202.175 79.8923 202.486 81.0008 203.145 81.9018C203.78 82.7099 204.725 83.2176 205.418 83.9777C206.082 84.7211 206.481 85.6635 206.552 86.6573C206.598 86.0525 206.522 85.4446 206.327 84.87C206.132 84.2955 205.823 83.7661 205.418 83.3137V83.3137Z" fill="black"/>
<path opacity="0.1" d="M229.367 74.2442C229.189 74.9802 228.873 75.6802 228.728 76.4222C228.643 76.9181 228.612 77.4217 228.635 77.9243C228.645 77.638 228.676 77.3528 228.728 77.0711C228.873 76.3261 229.189 75.6291 229.367 74.8931C229.47 74.4872 229.504 74.0666 229.466 73.6494C229.447 73.8498 229.414 74.0486 229.367 74.2442V74.2442Z" fill="black"/>
</g>
<path opacity="0.1" d="M147.049 246.663C163.246 246.663 176.376 244.559 176.376 241.962C176.376 239.365 163.246 237.26 147.049 237.26C130.852 237.26 117.722 239.365 117.722 241.962C117.722 244.559 130.852 246.663 147.049 246.663Z" fill="#587EEC"/>
<path d="M147.994 151.898H146.107V194.308H147.994V151.898Z" fill="#535461"/>
<path d="M159.853 194.178L159.735 196.089L159.567 198.793L159.497 199.916L159.332 202.62L159.26 203.744L159.091 206.447L157.189 237.11C157.106 238.43 156.523 239.668 155.558 240.573C154.593 241.479 153.318 241.983 151.994 241.983H142.104C140.78 241.983 139.506 241.478 138.541 240.573C137.577 239.668 136.994 238.429 136.912 237.11L135.019 206.426L134.85 203.723L134.781 202.599L134.613 199.895L134.543 198.772L134.375 196.068L134.254 194.157C134.234 193.79 134.288 193.422 134.415 193.076C134.542 192.73 134.738 192.413 134.991 192.146C135.245 191.878 135.551 191.665 135.89 191.52C136.229 191.375 136.594 191.3 136.963 191.3H157.192C157.56 191.304 157.923 191.382 158.259 191.531C158.595 191.679 158.897 191.895 159.146 192.165C159.396 192.434 159.587 192.752 159.708 193.099C159.83 193.445 159.879 193.812 159.853 194.178V194.178Z" fill="#3F3D56"/>
<path d="M159.735 196.089L159.567 198.784H134.531L134.363 196.089H159.735Z" fill="#9D9CB5"/>
<path d="M159.498 199.907L159.332 202.605H134.769L134.601 199.907H159.498Z" fill="#9D9CB5"/>
<path d="M159.26 203.731L159.094 206.426H135.007L134.838 203.731H159.26Z" fill="#9D9CB5"/>
<path d="M131.482 167.793C142.471 175.73 147.058 188.143 147.058 188.143C147.058 188.143 133.815 187.689 122.823 179.752C111.831 171.815 107.254 159.405 107.254 159.405C107.254 159.405 120.491 159.856 131.482 167.793Z" fill="#587EEC"/>
<path d="M107.245 159.405C107.245 159.405 120.993 167.021 125.403 173.327C129.812 179.632 147.058 188.143 147.058 188.143" stroke="#535461" stroke-width="2" stroke-miterlimit="10"/>
<path d="M138.576 151.805C144.557 156.122 147.058 162.878 147.058 162.878C147.058 162.878 139.85 162.632 133.866 158.315C127.883 153.998 125.388 147.239 125.388 147.239C125.388 147.239 132.593 147.485 138.576 151.805Z" fill="#587EEC"/>
<path d="M125.388 147.239C125.388 147.239 132.87 151.384 135.269 154.815C137.667 158.246 147.058 162.878 147.058 162.878" stroke="#535461" stroke-width="2" stroke-miterlimit="10"/>
<path d="M155.741 162.536C148.87 170.073 147.416 179.924 147.416 179.924C147.416 179.924 157.105 177.55 163.97 170.01C170.835 162.47 172.295 152.622 172.295 152.622C172.295 152.622 162.613 154.998 155.741 162.536Z" fill="#587EEC"/>
<path d="M172.301 152.625C172.301 152.625 163.35 160.352 161.075 165.675C158.799 170.998 147.416 179.924 147.416 179.924" stroke="#535461" stroke-width="2" stroke-miterlimit="10"/>
<path d="M407.979 159.883C407.979 159.883 403.01 135.207 404.912 132.137C404.912 132.137 404.981 129.283 404.867 125.645C404.867 125.507 404.867 125.369 404.867 125.227C405.202 125.45 405.551 125.651 405.911 125.828C407.664 126.727 409.676 126.986 411.6 126.561L410.095 124.888C409.734 124.488 409.358 124.056 409.279 123.527C409.201 122.998 409.418 122.527 409.605 122.055C411.034 118.45 411.109 113.917 408.355 111.165C406.029 108.852 405.463 105.866 402.938 103.754C401.093 102.207 400.079 99.9386 399.121 97.7456C398.312 95.892 397.496 94.0234 397.033 92.0587C396.671 90.5236 396.527 88.9344 396.03 87.4354C395.534 85.9363 394.604 84.4793 393.15 83.8094C392.632 83.5721 392.057 83.4369 391.585 83.1214C390.965 82.7039 390.592 82.0249 390.143 81.4301C387.865 78.426 380.235 80.1954 376.623 81.4151C375.641 81.7222 374.732 82.2251 373.951 82.8931L373.984 82.8391C374.011 82.794 374.044 82.7489 374.074 82.7039C373.679 83.0229 373.337 83.4033 373.063 83.8304C372.536 84.6626 372.316 85.6329 371.877 86.5341C371.347 87.6006 368.401 90.5777 369.668 91.7764C369.756 91.8569 369.858 91.9218 369.969 91.9686C370.444 92.1662 370.968 92.2185 371.474 92.1188L371.419 92.248C370.987 93.3056 370.765 94.4372 370.766 95.5796C370.766 100.515 374.844 104.517 379.88 104.517C380.826 104.518 381.768 104.373 382.67 104.087C382.691 104.201 382.709 104.316 382.73 104.43C382.73 104.475 382.745 104.52 382.751 104.565L382.592 104.787C382.584 104.774 382.575 104.76 382.565 104.748L377.839 111.339C377.117 111.847 372.957 114.851 372.723 117.104C372.476 119.571 372.229 122.458 372.229 122.458L372.196 123.076C371.989 123.249 371.748 123.374 371.488 123.444C371.228 123.514 370.956 123.527 370.691 123.482C369.216 123.242 369.216 128.889 369.216 128.889C369.216 128.889 368.235 129.791 367.561 129.01C366.887 128.228 365.105 130.875 365.105 130.875L353.939 131.356L353.683 131.371L353.081 129.511C353.016 129.315 352.876 129.152 352.692 129.058C352.508 128.965 352.294 128.947 352.097 129.01C352.05 129.025 352.005 129.044 351.961 129.067L351.919 129.091L351.841 129.145L351.802 129.181C351.78 129.2 351.76 129.221 351.741 129.244L351.705 129.286L351.687 129.304C351.618 129.4 351.572 129.511 351.553 129.628C351.534 129.744 351.543 129.864 351.579 129.977L352.097 131.572C349.942 132.005 347.738 133.224 349.535 136.583L340.428 134.904L343.374 137.373L358.586 140.506C358.384 140.867 358.516 141.39 359.145 142.126C361.854 145.301 366.79 146.163 368.777 146.385C369.301 147.557 369.957 148.665 370.73 149.69L370.559 152.853C370.559 152.853 365.529 176.965 364.608 178.187C365.073 177.661 365.499 177.102 365.881 176.514C364.422 181.468 362.381 188.248 361.845 189.263C360.984 190.886 360.187 197.45 361.168 197.87C361.469 197.999 362.33 197.936 363.558 197.843V198.387L363.504 218.992C363.504 218.992 363.75 231.631 363.073 232.835C362.396 234.04 362.215 236.567 362.215 236.567C362.215 236.567 359.507 241.55 357.361 243.554C357.346 243.57 357.33 243.584 357.313 243.596L357.246 243.128C357.246 243.128 354.667 246.378 348.96 246.195C348.96 246.195 345.526 248.424 350.619 248.544C355.711 248.664 362.215 248.364 362.215 248.364C362.215 248.364 366.757 241.454 370.562 242.356V247.592H371.726V242.271C372.267 241.916 372.729 241.456 373.085 240.917C373.442 240.379 373.685 239.773 373.8 239.138C373.9 238.483 373.827 237.814 373.588 237.196C373.35 236.578 372.954 236.033 372.44 235.614C372.209 235.406 372.023 235.152 371.896 234.869C371.768 234.585 371.7 234.279 371.696 233.968L371.654 234.004C371.654 233.899 371.627 233.791 371.615 233.68C371.281 230.976 370.863 225.397 372.34 221.27C374.366 215.61 374.98 207.727 373.505 203.034C373.029 201.534 372.638 200.009 372.334 198.465C372.298 198.27 372.265 198.084 372.235 197.909C373.243 198.045 374.241 198.246 375.224 198.51C378.64 199.45 386.113 199.625 392.494 199.574C392.509 199.748 392.527 199.931 392.548 200.114C392.662 201.388 392.9 202.648 393.258 203.876C394.059 206.279 394.426 216.874 394.426 216.874C394.426 216.874 395.459 225.586 394.896 229.131C394.595 231.102 394.294 233.082 394.122 235.07V235.11C394.122 235.11 392.431 239.916 391.194 242.527C391.164 242.593 391.13 242.659 391.1 242.722C390.771 242.752 390.446 242.824 390.134 242.935C390.134 242.935 388.476 246.24 386.823 246.787C385.171 247.333 385.719 249.133 389.46 248.472C393.201 247.811 398.851 247.27 398.851 247.27L399.094 243.9L400.244 242.464L399.943 245.825L401.168 245.585L401.006 241.496L402.887 239.147C402.887 239.147 405.159 237.128 401.782 233.157V233.244C401.746 233.187 401.713 233.127 401.674 233.07V233.052C401.114 232.187 400.668 230.573 401.484 227.71C402.959 222.537 403.817 217.842 403.817 217.842C403.817 217.842 407.109 205.263 403.152 199.312H403.326C402.92 198.475 402.634 197.585 402.474 196.669C402.454 196.561 402.436 196.449 402.42 196.335C405.349 196.167 408.223 195.638 410.568 194.497C410.559 194.485 409.147 164.636 407.979 159.883ZM370.799 139.064V139.124L370.197 139.155L370.799 139.064ZM368.735 139.35C368.636 139.372 368.543 139.416 368.464 139.479C368.205 139.844 368.042 140.269 367.991 140.714L367.052 140.503C367.052 140.503 366.393 140.362 365.445 140.203L364.996 139.752C366.23 139.65 367.513 139.5 368.735 139.35V139.35Z" fill="url(#paint1_linear_6_373)"/>
<path d="M399.805 241.538L399.447 245.795L400.647 245.555L400.467 240.938L399.805 241.538Z" fill="#1D2366"/>
<path d="M372.406 221.326C370.959 225.442 371.368 230.997 371.693 233.694C371.814 234.692 371.925 235.299 371.925 235.299C371.925 235.299 369.761 240.219 369.58 240.406C369.4 240.592 363.212 244.362 363.212 244.362L358.887 246.883C358.887 246.883 354.498 244.963 356.602 244.302C357.032 244.13 357.419 243.866 357.737 243.53C359.844 241.532 362.489 236.566 362.489 236.566C362.489 236.566 362.67 234.046 363.332 232.847C363.994 231.649 363.753 219.052 363.753 219.052L363.805 198.519V195.842L372.036 195.902C372.088 196.811 372.207 197.715 372.391 198.606C372.687 200.145 373.07 201.665 373.538 203.16C374.989 207.844 374.387 215.688 372.406 221.326Z" fill="#FFB0B1"/>
<path opacity="0.1" d="M371.925 235.299C371.925 235.299 369.761 240.22 369.58 240.406C369.4 240.592 363.212 244.362 363.212 244.362L358.887 246.883C358.887 246.883 354.498 244.963 356.602 244.302C357.032 244.13 357.419 243.867 357.737 243.53L357.923 244.843L359.365 244.783L371.705 233.701C371.814 234.692 371.925 235.299 371.925 235.299Z" fill="black"/>
<path d="M371.775 233.98L359.365 245.137L357.923 245.197L357.622 243.095C357.622 243.095 355.1 246.333 349.496 246.153C349.496 246.153 346.131 248.373 351.118 248.493C356.106 248.613 362.474 248.313 362.474 248.313C362.474 248.313 366.923 241.403 370.646 242.304V247.523H371.79V242.256C372.321 241.899 372.775 241.438 373.124 240.901C373.472 240.364 373.709 239.762 373.818 239.132C373.917 238.483 373.847 237.819 373.615 237.204C373.382 236.59 372.995 236.045 372.491 235.623C372.266 235.412 372.086 235.158 371.963 234.875C371.84 234.593 371.775 234.288 371.775 233.98V233.98Z" fill="#1D2366"/>
<path d="M400.948 227.743C400.148 230.597 400.584 232.205 401.132 233.067V233.085C401.834 234.149 402.323 235.34 402.571 236.591L402.619 236.861L396.972 245.077L393.908 246.279C393.908 246.279 388.981 244.6 389.881 244.119C390.107 244.002 390.459 243.377 390.863 242.515C392.066 239.916 393.728 235.122 393.728 235.122V235.083C393.902 233.103 394.179 231.129 394.486 229.164C395.037 225.629 394.026 216.95 394.026 216.95C394.026 216.95 393.665 206.396 392.882 203.996C392.529 202.775 392.294 201.524 392.181 200.259C392.018 198.757 391.982 197.519 391.982 197.519C391.982 197.519 395.227 193.013 401.174 197.879C401.65 198.267 402.068 198.721 402.417 199.225C406.525 205.059 403.218 217.911 403.218 217.911C403.218 217.911 402.39 222.585 400.948 227.743Z" fill="#FFB0B1"/>
<path opacity="0.1" d="M402.628 236.861L396.981 245.077L393.918 246.279C393.918 246.279 388.991 244.6 389.89 244.119C390.116 244.002 390.468 243.377 390.872 242.515C392.957 242.497 394.038 244.479 394.038 244.479L396.68 244.059C396.68 244.059 400.166 237.221 400.948 236.804C401.731 236.386 401.069 233.683 401.069 233.683V232.995C401.09 233.019 401.108 233.046 401.132 233.07V233.088C401.835 234.152 402.323 235.343 402.571 236.594L402.628 236.861Z" fill="black"/>
<path d="M394.218 244.657C394.218 244.657 392.714 241.899 389.83 242.917C389.83 242.917 388.208 246.222 386.586 246.757C384.963 247.291 385.505 249.094 389.171 248.436C392.837 247.778 398.363 247.234 398.363 247.234L398.604 243.873L402.33 239.135C402.33 239.135 404.551 237.125 401.246 233.169V233.857C401.246 233.857 401.908 236.561 401.126 236.978C400.343 237.396 396.87 244.236 396.87 244.236L394.218 244.657Z" fill="#1D2366"/>
<path opacity="0.1" d="M372.045 195.897C372.097 196.805 372.216 197.709 372.4 198.6C369.011 198.105 365.866 198.351 363.805 198.513V195.837L372.045 195.897Z" fill="black"/>
<path opacity="0.1" d="M402.751 199.973C402.751 199.973 397.936 200.208 392.193 200.256C392.03 198.754 391.994 197.516 391.994 197.516C391.994 197.516 395.239 193.01 401.186 197.876C401.662 198.265 402.08 198.718 402.429 199.222C402.522 199.478 402.63 199.729 402.751 199.973V199.973Z" fill="black"/>
<path d="M402.751 199.432C402.751 199.432 381.659 200.451 375.23 198.651C368.801 196.852 362.429 198.411 361.469 197.993C360.509 197.576 361.288 191.036 362.131 189.417C362.974 187.797 367.597 171.422 367.597 171.422L372.045 148.272L376.732 146.983L377.063 146.89L385.228 144.643L391.212 142.994C391.212 142.994 403.109 189.356 402.089 192.775C401.719 194.084 401.659 195.461 401.914 196.798C402.07 197.71 402.352 198.597 402.751 199.432V199.432Z" fill="#1D2366"/>
<path d="M356.539 132.44C356.539 132.44 352.325 136.946 355.516 139.458C358.706 141.969 360.804 139.698 360.804 139.698L356.539 132.44Z" fill="#C7DAF5"/>
<path opacity="0.1" d="M356.539 132.44C356.539 132.44 352.325 136.946 355.516 139.458C358.706 141.969 360.804 139.698 360.804 139.698L356.539 132.44Z" fill="black"/>
<path d="M390.583 102.814C390.583 102.814 390.089 103.282 389.346 103.973C388.286 104.962 386.718 106.407 385.328 107.617C383.401 109.29 381.812 110.519 382.381 109.471C382.95 108.422 382.842 106.596 382.559 104.886C382.538 104.772 382.519 104.658 382.498 104.547C382.264 103.292 381.954 102.052 381.568 100.834C381.568 100.834 384.68 96.8203 386.402 95.2372C387.043 94.6363 387.492 94.39 387.519 94.8076C387.549 95.3694 387.97 96.6101 388.494 97.9259C388.509 97.9679 388.524 98.007 388.542 98.049C388.891 98.9503 389.285 99.8755 389.632 100.675C390.161 101.9 390.583 102.814 390.583 102.814Z" fill="#FFB0B1"/>
<path opacity="0.1" d="M388.542 98.0489C388.25 99.619 387.54 101.082 386.487 102.285C385.435 103.487 384.078 104.386 382.559 104.886C382.319 103.515 381.988 102.161 381.568 100.834C381.568 100.834 387.428 93.2784 387.519 94.8075C387.54 95.3873 387.997 96.673 388.542 98.0489Z" fill="black"/>
<path opacity="0.1" d="M381.975 106.905L382.733 105.839C382.733 105.839 383.236 108.897 385.084 107.548C386.932 106.199 387.022 117.699 387.022 117.699L385.039 147.299L370.706 146.443L371.112 132.14L372.735 124.93L376.747 114.449L379.133 110.985L381.975 106.905Z" fill="black"/>
<path d="M387.022 117.882L385.216 144.646L385.027 147.482L377.036 147.004L376.735 146.986L370.715 146.626L371.121 132.32L372.744 125.11L376.756 114.629L379.142 111.165L381.984 107.07L382.742 106.007C382.742 106.007 383.245 109.065 385.093 107.716L385.132 107.689C386.938 106.548 387.022 117.882 387.022 117.882Z" fill="#1D2366"/>
<path d="M372.945 122.605C372.945 122.605 372.226 124.107 370.781 123.864C369.337 123.62 369.34 129.271 369.34 129.271C369.34 129.271 368.379 130.172 367.717 129.391C367.055 128.61 365.309 131.251 365.309 131.251L354.372 131.731C354.372 131.731 359.239 133.951 358.285 140.669C358.285 140.669 374.808 139.647 375.35 138.088C375.892 136.529 372.945 122.605 372.945 122.605Z" fill="white"/>
<path opacity="0.03" d="M372.945 122.605C372.945 122.605 372.226 124.107 370.781 123.864C369.337 123.62 369.34 129.271 369.34 129.271C369.34 129.271 368.379 130.172 367.717 129.391C367.055 128.61 365.309 131.251 365.309 131.251L354.372 131.731C354.372 131.731 359.239 133.951 358.285 140.669C358.285 140.669 374.808 139.647 375.35 138.088C375.892 136.529 372.945 122.605 372.945 122.605Z" fill="black"/>
<path d="M341.159 135.261L344.042 137.719L367.778 142.696L364.834 139.698L341.159 135.261Z" fill="white"/>
<path d="M382.02 107.851C381.625 108.452 380.497 111.529 379.555 114.214C378.769 116.452 378.113 118.42 378.113 118.42C378.113 118.42 376.581 128.376 375.799 130.175C375.016 131.975 375.44 138.992 375.44 138.992L372.524 156.323C372.524 156.323 371.203 165.26 369.162 170.599C367.148 175.853 364.906 178.316 364.837 178.395C365.74 177.175 370.661 153.16 370.661 153.16L372.286 122.872C372.286 122.872 372.524 119.994 372.765 117.534C373.005 115.073 377.881 111.715 377.881 111.715L382.583 105.043C383.055 105.673 382.739 106.773 382.02 107.851Z" fill="white"/>
<path d="M369.761 146.776C369.761 146.776 362.838 146.476 359.486 142.456C356.133 138.437 367.236 140.852 367.236 140.852L370.122 141.513L369.761 146.776Z" fill="#FFB0B1"/>
<path opacity="0.1" d="M402.089 192.778C401.719 194.087 401.659 195.465 401.914 196.801C394.363 197.335 386.285 195.299 386.285 195.299C384.78 196.681 380.816 198.717 380.816 198.717L378.655 171.981C377.273 168.376 376.732 149.489 376.732 149.489C376.732 149.489 376.855 148.5 377.033 147.019C377.033 146.983 377.033 146.944 377.048 146.908C377.586 142.771 378.655 135.006 379.179 133.957C379.901 132.515 376.957 128.679 376.957 128.679L378.297 117.278L378.459 115.902C381.282 114.644 383.446 110.624 383.446 110.624L385.108 107.719C386.914 106.563 387.007 117.897 387.007 117.897L385.201 144.661L391.185 143.012C391.185 143.012 403.109 189.36 402.089 192.778Z" fill="black"/>
<path d="M409.839 194.626C401.607 198.706 386.646 194.926 386.646 194.926C385.141 196.308 381.177 198.345 381.177 198.345L379.013 171.608C377.635 168.003 377.093 149.116 377.093 149.116C377.093 149.116 378.832 135.024 379.555 133.585C379.765 133.164 379.663 132.54 379.413 131.867C378.185 128.664 377.733 125.216 378.095 121.806L378.673 116.906L378.832 115.533C381.659 114.271 383.823 110.252 383.823 110.252L385.328 107.62L388.097 102.772L389.409 100.476L389.632 100.678L391.332 102.216C391.332 102.216 392.054 102.817 393.138 103.718C395.495 105.701 399.567 109.191 401.668 111.327C403.516 113.208 404.1 120.523 404.268 126.03C404.379 129.656 404.313 132.497 404.313 132.497C402.45 135.559 407.323 160.136 407.323 160.136C408.458 164.885 409.839 194.626 409.839 194.626Z" fill="white"/>
<path opacity="0.03" d="M394.038 110.192C394.038 110.192 388.389 120.926 389.045 125.005C389.701 129.085 391.567 133.702 390.667 134.781C390.358 135.189 389.958 135.521 389.499 135.75C389.04 135.978 388.534 136.098 388.021 136.099C387.118 136.16 384.711 137.839 384.711 138.019C384.711 138.199 382.486 138.199 380.497 139.04C378.507 139.882 375.57 140.359 375.57 140.359C375.57 140.359 369.851 140.179 369.319 140.72C368.786 141.261 368.238 144.496 369.379 147.077C370.519 149.657 371.787 151.583 372.744 151.934C373.701 152.286 379.775 150.255 384.702 149.774C389.629 149.294 394.977 145.397 394.977 145.397C394.977 145.397 400.867 143.294 401.899 139.758C402.932 136.223 400.638 116.789 400.638 116.789C400.638 116.789 398.905 107.731 394.038 110.192Z" fill="black"/>
<path opacity="0.03" d="M393.316 109.291C393.316 109.291 387.666 120.027 388.328 124.104C388.99 128.181 390.85 132.801 389.948 133.882C389.639 134.291 389.24 134.623 388.782 134.852C388.323 135.081 387.818 135.201 387.305 135.201C386.402 135.261 383.994 136.941 383.994 137.121C383.994 137.301 381.77 137.301 379.78 138.139C377.791 138.977 374.853 139.458 374.853 139.458C374.853 139.458 369.135 139.278 368.605 139.819C368.075 140.359 367.522 143.598 368.665 146.175C369.809 148.753 371.073 150.682 372.03 151.033C372.987 151.384 379.061 149.354 383.988 148.876C388.915 148.398 394.264 144.496 394.264 144.496C394.264 144.496 400.151 142.393 401.171 138.86C402.191 135.327 399.91 115.888 399.91 115.888C399.91 115.888 398.182 106.833 393.316 109.291Z" fill="black"/>
<path d="M393.86 109.651C393.86 109.651 388.211 120.388 388.873 124.464C389.535 128.541 391.395 133.161 390.495 134.24C390.187 134.65 389.788 134.983 389.329 135.212C388.869 135.442 388.363 135.561 387.85 135.562C386.947 135.622 384.539 137.301 384.539 137.478C384.539 137.656 382.318 137.659 380.325 138.5C378.333 139.341 375.398 139.818 375.398 139.818C375.398 139.818 369.68 139.638 369.147 140.179C368.614 140.72 368.066 143.958 369.207 146.536C370.348 149.113 371.615 151.042 372.572 151.393C373.529 151.745 379.603 149.714 384.53 149.233C389.457 148.753 394.805 144.856 394.805 144.856C394.805 144.856 400.695 142.754 401.728 139.218C402.76 135.682 400.482 116.248 400.482 116.248C400.482 116.248 398.724 107.206 393.86 109.651Z" fill="white"/>
<path opacity="0.1" d="M393.737 138.449C393.737 138.449 389.222 137.547 390.793 139.049C392.364 140.551 392.355 141.867 394.279 141.807C396.202 141.747 393.737 138.449 393.737 138.449Z" fill="black"/>
<path opacity="0.1" d="M401.367 170.767C401.367 170.767 399.326 172.146 403.23 175.324C407.133 178.503 401.367 170.767 401.367 170.767Z" fill="black"/>
<path opacity="0.1" d="M397.472 182.102C397.472 182.282 396.75 188.711 399.452 190.318C402.155 191.925 397.472 182.102 397.472 182.102Z" fill="black"/>
<path d="M354.559 131.716C352.379 131.791 347.672 132.455 350.113 137.001C352.271 141.023 355.898 138.334 357.938 136.295C357.441 134.393 356.231 132.754 354.559 131.716V131.716Z" fill="#FFB0B1"/>
<path d="M357.966 136.259L358.056 136.166L357.966 136.259Z" fill="#FFB0B1"/>
<path opacity="0.1" d="M393.138 103.901C390.826 105.478 388.888 106.809 388.509 107.085C387.474 107.851 385.499 112.349 384.226 114.644C383.212 116.491 379.916 116.966 378.673 117.083L378.833 115.71C381.659 114.448 383.823 110.429 383.823 110.429L389.409 100.653L391.332 102.399C391.332 102.399 392.054 103 393.138 103.901Z" fill="black"/>
<path d="M393.138 103.721C390.826 105.298 388.888 106.629 388.509 106.908C387.474 107.671 385.499 112.168 384.226 114.464C383.212 116.311 379.916 116.786 378.673 116.903L378.833 115.53C381.659 114.268 383.823 110.249 383.823 110.249L389.409 100.473L391.332 102.213C391.332 102.213 392.054 102.807 393.138 103.721Z" fill="#DCE7FF"/>
<path d="M388.689 96.0663C388.691 97.8697 388.143 99.6308 387.118 101.116C385.908 102.873 384.108 104.138 382.043 104.682C379.979 105.227 377.787 105.015 375.866 104.084C373.944 103.154 372.421 101.567 371.572 99.6113C370.722 97.6557 370.604 95.461 371.237 93.4254C371.87 91.3899 373.214 89.6484 375.023 88.5168C376.833 87.3853 378.989 86.9388 381.101 87.2583C383.212 87.5778 385.139 88.6421 386.531 90.2581C387.923 91.8742 388.689 93.9349 388.689 96.0663V96.0663Z" fill="#FFB0B1"/>
<path opacity="0.1" d="M404.268 126.032C403.046 125.282 402.05 124.215 401.388 122.944C400.885 121.953 400.551 120.808 399.693 120.105C398.92 119.474 397.887 119.321 396.924 119.039C393.758 118.105 391.103 115.221 391.004 111.928C390.956 110.378 391.44 108.831 391.221 107.296C391.096 106.427 390.75 105.605 390.215 104.907C389.95 104.574 389.659 104.262 389.346 103.973C388.924 103.577 388.482 103.192 388.097 102.771C387.854 102.511 387.642 102.224 387.464 101.915C387.321 101.663 387.205 101.396 387.118 101.119C386.516 99.2806 387.064 97.0997 386.402 95.2401L386.366 95.1379C386.116 94.477 385.607 93.8161 384.9 93.7651C384.193 93.714 383.588 94.2998 382.914 94.5612C381.502 95.1079 379.979 94.1766 378.802 93.2273C377.625 92.278 376.298 91.1935 374.802 91.4038C373.812 91.545 373.03 92.2179 372.118 92.5664C371.912 92.646 371.699 92.7073 371.483 92.7497C372.254 90.8286 373.672 89.2357 375.493 88.2447C377.313 87.2537 379.423 86.9266 381.459 87.3193C383.495 87.7121 385.33 88.8004 386.65 90.3971C387.969 91.9939 388.691 93.9994 388.689 96.0692C388.69 96.6943 388.625 97.3176 388.494 97.9288C388.509 97.9708 388.524 98.0099 388.542 98.052C388.891 98.9532 389.285 99.8785 389.632 100.678L391.332 102.216C391.332 102.216 392.054 102.817 393.138 103.718C395.495 105.7 399.567 109.191 401.668 111.327C403.516 113.214 404.094 120.526 404.268 126.032Z" fill="black"/>
<path d="M372.012 87.0779C372.443 86.2037 372.656 85.2243 373.171 84.3952C373.927 83.1935 375.245 82.4245 376.599 81.9588C380.136 80.7422 387.609 78.9757 389.842 81.9588C390.282 82.5597 390.646 83.2266 391.254 83.6412C391.717 83.9566 392.277 84.0918 392.786 84.3291C394.209 84.996 395.118 86.45 395.603 87.9341C396.088 89.4181 396.232 91.0103 396.587 92.5394C397.042 94.5011 397.839 96.3607 398.634 98.2082C399.57 100.389 400.563 102.651 402.369 104.192C404.834 106.295 405.379 109.272 407.666 111.58C410.375 114.319 410.288 118.841 408.891 122.431C408.708 122.902 408.5 123.395 408.572 123.897C408.644 124.398 409.018 124.855 409.37 125.254L410.85 126.922C407.347 127.766 403.383 125.939 401.752 122.734C401.249 121.743 400.915 120.601 400.054 119.895C399.284 119.264 398.249 119.114 397.288 118.832C394.122 117.894 391.468 115.007 391.368 111.715C391.32 110.168 391.805 108.621 391.585 107.088C391.463 106.214 391.115 105.386 390.577 104.685C389.749 103.607 388.5 102.883 387.826 101.681C386.685 99.6712 387.552 97.0606 386.73 94.9037C386.477 94.2427 385.972 93.5818 385.264 93.5308C384.557 93.4797 383.952 94.0655 383.275 94.3269C381.866 94.8736 380.343 93.9453 379.167 92.993C377.99 92.0407 376.662 90.9592 375.164 91.1725C374.173 91.3107 373.394 91.9836 372.482 92.3351C371.808 92.5935 370.441 92.8248 369.851 92.257C368.605 91.1124 371.492 88.1474 372.012 87.0779Z" fill="#591D4B"/>
<path opacity="0.1" d="M402.589 121.743C402.083 120.751 401.752 119.61 400.891 118.907C400.121 118.276 399.085 118.123 398.122 117.84C394.959 116.906 392.304 114.019 392.202 110.727C392.154 109.179 392.638 107.629 392.422 106.097C392.296 105.228 391.948 104.406 391.413 103.709C390.583 102.63 389.334 101.906 388.662 100.705C387.522 98.698 388.389 96.0874 387.564 93.9274C387.314 93.2695 386.805 92.6086 386.101 92.5545C385.397 92.5004 384.786 93.0923 384.112 93.3536C382.703 93.9004 381.177 92.9691 380.003 92.0198C378.829 91.0705 377.496 89.986 376 90.1963C375.01 90.3375 374.228 91.0104 373.319 91.3589C372.644 91.6172 371.275 91.8515 370.685 91.2838C369.445 90.0821 372.331 87.123 372.849 86.0596C373.279 85.1824 373.493 84.206 374.011 83.3769C374.038 83.3318 374.068 83.2868 374.098 83.2417C373.711 83.5619 373.377 83.9411 373.108 84.3652C372.593 85.1944 372.379 86.1677 371.949 87.0479C371.428 88.1114 368.542 91.0795 369.785 92.2721C370.387 92.8429 371.741 92.6086 372.416 92.3502C373.319 91.9987 374.107 91.3258 375.097 91.1876C376.602 90.9743 377.927 92.0588 379.1 93.0081C380.274 93.9574 381.809 94.8887 383.212 94.342C383.886 94.0806 384.476 93.4918 385.198 93.5459C385.92 93.5999 386.402 94.2579 386.664 94.9188C387.486 97.0757 386.619 99.6863 387.759 101.696C388.434 102.877 389.683 103.616 390.51 104.7C391.049 105.401 391.396 106.229 391.519 107.104C391.738 108.636 391.254 110.183 391.302 111.73C391.401 115.034 394.056 117.909 397.222 118.847C398.176 119.129 399.218 119.279 399.988 119.91C400.852 120.616 401.192 121.758 401.686 122.749C403.317 125.954 407.281 127.781 410.784 126.937L410.086 126.15C407.049 126.195 403.976 124.47 402.589 121.743Z" fill="black"/>
<path opacity="0.1" d="M381.839 108.032C381.445 108.633 380.316 111.709 379.374 114.395C378.492 114.052 377.692 111.868 377.692 111.868L382.393 105.193C382.875 105.854 382.559 106.95 381.839 108.032Z" fill="black"/>
<path d="M382.02 107.851C381.626 108.452 380.497 111.528 379.555 114.214C378.673 113.875 377.872 111.688 377.872 111.688L382.574 105.016C383.055 105.673 382.739 106.773 382.02 107.851Z" fill="#DCE7FF"/>
<path d="M354.685 138.542L352.078 130.337C352.048 130.241 352.036 130.14 352.044 130.04C352.053 129.939 352.081 129.841 352.128 129.752C352.174 129.662 352.238 129.582 352.315 129.518C352.392 129.453 352.482 129.403 352.578 129.373V129.373C352.772 129.313 352.982 129.331 353.162 129.425C353.343 129.518 353.479 129.679 353.541 129.872L356.148 138.067L355.889 139.782L354.685 138.542Z" fill="#BE8B87"/>
<path opacity="0.1" d="M352.325 129.616C352.52 129.555 352.731 129.573 352.912 129.667C353.093 129.76 353.229 129.921 353.292 130.115L355.898 138.31L355.702 139.596L355.892 139.795L356.151 138.079L353.529 129.884C353.467 129.691 353.331 129.53 353.151 129.437C352.97 129.343 352.76 129.325 352.566 129.385V129.385C352.403 129.438 352.262 129.544 352.166 129.686C352.217 129.658 352.27 129.635 352.325 129.616V129.616Z" fill="white"/>
<path d="M354.685 138.542L356.148 138.079L355.934 139.485L355.889 139.795L355.461 139.35L354.685 138.542Z" fill="#EFC8C4"/>
<path d="M355.461 139.35C355.487 139.318 355.519 139.291 355.555 139.272C355.576 139.258 355.601 139.251 355.626 139.251C355.651 139.251 355.675 139.258 355.696 139.272C355.717 139.296 355.734 139.324 355.747 139.353C355.767 139.386 355.794 139.414 355.827 139.436C355.859 139.457 355.896 139.471 355.934 139.476L355.889 139.776L355.461 139.35Z" fill="#727A9C"/>
<path d="M352.063 133.251C352.063 133.251 357.291 133.221 356.06 135.441C354.829 137.662 352.906 137.929 352.906 137.929L352.063 133.251Z" fill="#FFB0B1"/>
<path d="M319.549 33.6193H319.323C310.342 33.6193 302.399 38.3628 297.83 45.3624C293.261 38.3628 285.319 33.6193 276.337 33.6193H276.112C269.371 33.6834 262.929 36.3999 258.184 41.1785C253.439 45.9571 250.776 52.4116 250.772 59.1394C250.772 67.4939 254.438 79.3482 261.586 89.1026C275.206 107.689 297.83 123.951 297.83 123.951C297.83 123.951 320.455 107.692 334.071 89.1026C341.222 79.3482 344.885 67.4939 344.885 59.1394C344.881 52.4121 342.218 45.958 337.474 41.1795C332.73 36.401 326.288 33.6842 319.549 33.6193V33.6193ZM316.319 90.5326C315.296 90.5287 314.299 90.2162 313.457 89.6361C312.615 89.056 311.969 88.2354 311.603 87.2821H306.233C305.88 87.2799 305.536 87.1675 305.249 86.9607C304.963 86.7539 304.748 86.463 304.635 86.1285L302.986 81.1687L297.767 99.3707C297.665 99.7211 297.453 100.029 297.161 100.249C296.869 100.468 296.513 100.587 296.148 100.587H296.042C295.661 100.569 295.298 100.421 295.013 100.167C294.728 99.9131 294.539 99.5695 294.477 99.1935L289.099 66.9051L285.168 86.0113C285.078 86.3743 284.869 86.6967 284.573 86.927C284.278 87.1573 283.914 87.2823 283.54 87.2821H275.976C275.749 87.2917 275.523 87.2554 275.311 87.1754C275.098 87.0954 274.905 86.9733 274.741 86.8166C274.577 86.6598 274.447 86.4716 274.357 86.2633C274.268 86.055 274.223 85.8308 274.223 85.6043C274.223 85.3778 274.268 85.1536 274.357 84.9453C274.447 84.7369 274.577 84.5487 274.741 84.392C274.905 84.2352 275.098 84.1132 275.311 84.0332C275.523 83.9532 275.749 83.9169 275.976 83.9265H282.215L287.784 58.2381C287.875 57.8583 288.096 57.522 288.408 57.2867C288.72 57.0514 289.105 56.9316 289.496 56.9479C289.887 56.9642 290.26 57.1156 290.552 57.3762C290.843 57.6367 291.035 57.9902 291.094 58.3763L296.587 91.3136L301.264 75.0282C301.362 74.6852 301.568 74.3829 301.851 74.1663C302.135 73.9497 302.481 73.8306 302.838 73.8266H302.872C303.225 73.8267 303.57 73.9383 303.856 74.1454C304.143 74.3526 304.356 74.6447 304.467 74.9802L307.449 83.9355H311.537C311.827 83.0543 312.356 82.2703 313.065 81.6702C313.774 81.07 314.635 80.677 315.553 80.5345C316.472 80.392 317.412 80.5055 318.27 80.8626C319.128 81.2197 319.87 81.8064 320.415 82.558C320.96 83.3095 321.286 84.1968 321.358 85.1218C321.429 86.0467 321.243 86.9735 320.821 87.7997C320.398 88.6259 319.755 89.3195 318.962 89.8039C318.169 90.2882 317.258 90.5446 316.328 90.5446L316.319 90.5326Z" fill="#EC5863"/>
</g>
<g filter="url(#filter0_d_6_373)">
<circle cx="273.415" cy="136" r="20.3936" fill="#587EEC"/>
</g>
<path d="M280.213 136L270.016 141.887L270.016 130.113L280.213 136Z" fill="white"/>
<defs>
<filter id="filter0_d_6_373" x="251.021" y="115.606" width="44.7872" height="44.7872" filterUnits="userSpaceOnUse" color-interpolation-filters="sRGB">
<feFlood flood-opacity="0" result="BackgroundImageFix"/>
<feColorMatrix in="SourceAlpha" type="matrix" values="0 0 0 0 0 0 0 0 0 0 0 0 0 0 0 0 0 0 127 0" result="hardAlpha"/>
<feOffset dy="2"/>
<feGaussianBlur stdDeviation="1"/>
<feColorMatrix type="matrix" values="0 0 0 0 0 0 0 0 0 0 0 0 0 0 0 0 0 0 0.16 0"/>
<feBlend mode="normal" in2="BackgroundImageFix" result="effect1_dropShadow_6_373"/>
<feBlend mode="normal" in="SourceGraphic" in2="effect1_dropShadow_6_373" result="shape"/>
</filter>
<linearGradient id="paint0_linear_6_373" x1="214.348" y1="250.953" x2="214.348" y2="66.0969" gradientUnits="userSpaceOnUse">
<stop stop-color="#808080" stop-opacity="0.25"/>
<stop offset="0.54" stop-color="#808080" stop-opacity="0.12"/>
<stop offset="1" stop-color="#808080" stop-opacity="0.1"/>
</linearGradient>
<linearGradient id="paint1_linear_6_373" x1="67290.1" y1="139495" x2="67290.1" y2="44606.4" gradientUnits="userSpaceOnUse">
<stop stop-color="#808080" stop-opacity="0.25"/>
<stop offset="0.54" stop-color="#808080" stop-opacity="0.12"/>
<stop offset="1" stop-color="#808080" stop-opacity="0.1"/>
</linearGradient>
</defs>
</svg>
